<svg version="1.2" xmlns="http://www.w3.org/2000/svg" viewBox="0 0 128 128" width="128" height="128">
	<title>image</title>
	<style>
		.s0 { fill: none;stroke: #f2cb05;stroke-width: 9.5 } 
		.s1 { fill: none;stroke: #f2cb05;stroke-linecap: round;stroke-linejoin: round;stroke-width: 9.5 } 
	</style>
	<path id="Layer" fill-rule="evenodd" class="s0" d="m68.3 96.9c9.3 4.7 20.2 8 33 9.4 2.8 0.3 5.1-1.9 5.1-4.7v-12.4c0-2.2-1.5-4.1-3.6-4.6l-15-3.8c-1.7-0.4-3.4 0.1-4.6 1.3zm-35.1-34c7.3 13.1 18.6 25.6 35.1 34zm12.9-12.9c1.1-1.1 1.6-2.7 1.3-4.3l-4.1-20.2c-0.4-2.3-2.4-3.9-4.6-3.9h-12.5c-2.7 0-4.8 2.3-4.6 4.9 1.1 10.4 4.5 23.7 11.6 36.4z"/>
	<path id="Layer" fill-rule="evenodd" class="s1" d="m90 59.3c-1-5.2-3.5-10-7.3-13.8-3.7-3.8-8.5-6.4-13.8-7.4m42.4 19.9c-1.4-10.5-6.2-20.3-13.7-27.7-7.6-7.5-17.4-12.3-27.9-13.6z"/>
</svg>